/* XPM */
static char * C:\Users\itacr\Documents\GitHub\StreamiesC\share\pixmaps\bitcoin64_xpm[] = {
"48 48 107 2",
"  	c None",
". 	c #00CCF7",
"+ 	c #00CBF7",
"@ 	c #00CDF8",
"# 	c #00CCF6",
"$ 	c #00CAF4",
"% 	c #00CAF5",
"& 	c #000000",
"* 	c #000001",
"= 	c #008DAD",
"- 	c #00ABD1",
"; 	c #000C11",
"> 	c #00323E",
", 	c #00BFE8",
"' 	c #00C8F3",
") 	c #005F75",
"! 	c #0093B3",
"~ 	c #00B1D8",
"{ 	c #001921",
"] 	c #030303",
"^ 	c #92A5AD",
"/ 	c #26C9F3",
"( 	c #05CAF6",
"_ 	c #9BBFCE",
": 	c #303030",
"< 	c #5B5B5B",
"[ 	c #A6E0F9",
"} 	c #72D6F9",
"| 	c #9DA1A2",
"1 	c #424E53",
"2 	c #1E9EBF",
"3 	c #009DBF",
"4 	c #477383",
"5 	c #131313",
"6 	c #3E3E3E",
"7 	c #3F3F3F",
"8 	c #1A1A1A",
"9 	c #5F5F5F",
"0 	c #EFEFEF",
"a 	c #F4F4F4",
"b 	c #F2F2F2",
"c 	c #777777",
"d 	c #636363",
"e 	c #FAFAFA",
"f 	c #FFFFFF",
"g 	c #FDFDFD",
"h 	c #C8C8C8",
"i 	c #A4A4A4",
"j 	c #B1B1B1",
"k 	c #F8F8F8",
"l 	c #FEFEFE",
"m 	c #CCCCCC",
"n 	c #A5A5A5",
"o 	c #969696",
"p 	c #7D7D7D",
"q 	c #D0D0D0",
"r 	c #DDDDDD",
"s 	c #707070",
"t 	c #C3C3C3",
"u 	c #E1E1E1",
"v 	c #CBCBCB",
"w 	c #ACACAC",
"x 	c #919191",
"y 	c #B0B0B0",
"z 	c #F0F0F0",
"A 	c #AEAEAE",
"B 	c #CFCFCF",
"C 	c #A1A1A1",
"D 	c #EAEAEA",
"E 	c #848484",
"F 	c #6F6F6F",
"G 	c #010101",
"H 	c #070707",
"I 	c #C1C1C1",
"J 	c #ADADAD",
"K 	c #C7C7C7",
"L 	c #040404",
"M 	c #C0C0C0",
"N 	c #FCFCFC",
"O 	c #747474",
"P 	c #4F4F4F",
"Q 	c #F6F6F6",
"R 	c #E2E2E2",
"S 	c #222222",
"T 	c #989898",
"U 	c #626262",
"V 	c #595959",
"W 	c #0C0C0C",
"X 	c #BFBFBF",
"Y 	c #C9C9C9",
"Z 	c #7E7E7E",
"` 	c #9F9F9F",
" .	c #7C7C7C",
"..	c #2D2D2D",
"+.	c #8F8F8F",
"@.	c #5A5A5A",
"#.	c #E9E9E9",
"$.	c #4A4A4A",
"%.	c #4E4E4E",
"&.	c #151515",
"*.	c #484848",
"=.	c #373737",
"-.	c #006981",
";.	c #008CAB",
">.	c #006880",
",.	c #00CAF6",
"'.	c #00CCF8",
"                                                                                                ",
"                                                                                                ",
"                                                .                                               ",
"                                              . +                                               ",
"                                            @ + + .                                             ",
"                                            + + + +                                             ",
"                                          # + + + + .                                           ",
"                                          + + + + + +                                           ",
"                                        . + + + + + + +                                         ",
"                                        + + + + + + + + $                                       ",
"                                      % + + + + + + + + +                                       ",
"                                      + + + + + + + + + + +                                     ",
"                                    . + + + + + + + + + + +                                     ",
"                              & * = + + + + + + + + + + + + - ; & &                             ",
"                          & & & > , + + + + + + + + + + + + ' ) & & &                           ",
"                        & & & & ! + + + + + + + + + + + + + + ~ { & & &                         ",
"                        & & ] ^ / + + + + + + + + + + + + + + ( _ : & &                         ",
"                        & & < [ + + + + + + + + + + + + + + + + } | & &                         ",
"                      & & & 1 2 3 3 3 3 3 3 3 3 3 3 3 3 3 3 3 3 3 4 & & &                       ",
"                  & & & 5 6 7 7 7 7 7 7 7 7 7 7 7 7 7 7 7 7 7 7 7 7 7 8 & &                     ",
"                  & & & 9 0 a a a a a a a a a a a a a a a a a a a a b c & & &                   ",
"                  & & & d e f f g h i j k f f f f f f l m n o 0 f f g p & & &                   ",
"                  & & & d e f f q r e s t f f f f f f u v l w x f f g p & & &                   ",
"                  & & & d e f f y h z < A f f f f f f B C D E F f f g p & & &                   ",
"                  & & & d e f f A G H & A f f I J f f B & & & s f f g p & & &                   ",
"                  & & & d e f f K L & ] M f N O P Q f R S & & T f f g p & & &                   ",
"                  & & & U e f f e w V C Q f r W & X f l Y Z ` b f f g  .& & &                   ",
"                  & & & ..u g g g g g g g N +.& & @.Q g g g g g g g #.$.& & &                   ",
"                    & & & : %.%.%.%.%.%.%.%.&.& & H *.%.%.%.%.%.%.%.=.& & & &                   ",
"                      & & & -.;.;.;.;.;.;.;.;.;.;.;.;.;.;.;.;.;.;.>.& & &                       ",
"                              ,.+ + + + + + + + + + + + + + + + +                               ",
"                                + + + + + + + + + + + + + + + +                                 ",
"                                + + + + + + + + + + + + + + + '.                                ",
"                                  + + + + + + + + + + + + + +                                   ",
"                                  + + + + + + + + + + + + + +                                   ",
"                                    + + + + + + + + + + + +                                     ",
"                                    + + + + + + + + + + + '.                                    ",
"                                      + + + + + + + + + +                                       ",
"                                        + + + + + + + +                                         ",
"                                        + + + + + + + +                                         ",
"                                          + + + + + +                                           ",
"                                          . + + + + .                                           ",
"                                            + + + +                                             ",
"                                            . + + .                                             ",
"                                              + .                                               ",
"                                              . .                                               ",
"                                                                                                ",
"                                                                                                "};
