/* XPM */
static char * C:\Users\itacr\Documents\GitHub\StreamiesC\share\pixmaps\bitcoin32_xpm[] = {
"32 32 87 1",
" 	c None",
".	c #00CCF7",
"+	c #00CBF7",
"@	c #00CCF6",
"#	c #00CBF6",
"$	c #000000",
"%	c #001218",
"&	c #009FC2",
"*	c #00AED4",
"=	c #002833",
"-	c #010101",
";	c #427081",
">	c #04C2EC",
",	c #00C6F2",
"'	c #468297",
")	c #111111",
"!	c #454545",
"~	c #8ED1EC",
"{	c #04CBF7",
"]	c #6ECFF1",
"^	c #7A7D7E",
"/	c #0E0E0E",
"(	c #3A4246",
"_	c #268DAA",
":	c #1D8DAA",
"<	c #3E5D69",
"[	c #101010",
"}	c #848484",
"|	c #D7D7D7",
"1	c #D9D9D9",
"2	c #D8D8D8",
"3	c #8F8F8F",
"4	c #9C9C9C",
"5	c #FEFEFE",
"6	c #FCFCFC",
"7	c #B8B8B8",
"8	c #DDDDDD",
"9	c #FFFFFF",
"0	c #EDEDED",
"a	c #C3C3C3",
"b	c #AFAFAF",
"c	c #F7F7F7",
"d	c #AAAAAA",
"e	c #F0F0F0",
"f	c #C9C9C9",
"g	c #DADADA",
"h	c #A4A4A4",
"i	c #CBCBCB",
"j	c #E1E1E1",
"k	c #8A8A8A",
"l	c #E7E7E7",
"m	c #EFEFEF",
"n	c #5F5F5F",
"o	c #040404",
"p	c #9D9D9D",
"q	c #BBBBBB",
"r	c #030303",
"s	c #3F3F3F",
"t	c #FBFBFB",
"u	c #B2B2B2",
"v	c #626262",
"w	c #F9F9F9",
"x	c #737373",
"y	c #F4F4F4",
"z	c #E8E8E8",
"A	c #838383",
"B	c #A6A6A6",
"C	c #F8F8F8",
"D	c #A9A9A9",
"E	c #6F6F6F",
"F	c #DBDBDB",
"G	c #CDCDCD",
"H	c #404040",
"I	c #262626",
"J	c #C4C4C4",
"K	c #7A7A7A",
"L	c #060606",
"M	c #225768",
"N	c #26809A",
"O	c #207F99",
"P	c #027B96",
"Q	c #007B96",
"R	c #1D7E99",
"S	c #235768",
"T	c #080808",
"U	c #00CAF6",
"V	c #00CCF8",
"                                ",
"                .               ",
"               .+               ",
"               ++               ",
"              @++.              ",
"             .+++++             ",
"             +++++#             ",
"             +++++++            ",
"            .+++++++            ",
"         $%&++++++++*=$         ",
"        $-;>++++++++,')$        ",
"        $!~{+++++++++]^$        ",
"       $/(_:::::::::::<[$       ",
"      $$}|11111111111123$$      ",
"      $$45627899990abc9d$$      ",
"      $$45efgh9999ijkl9d$$      ",
"      $$45mnop9fq5qrsl9d$$      ",
"      $$45tuv2w}xyzABC9D$$      ",
"      $$EFjjjjGHIJjjjj8K$$      ",
"       $LMNNNNOPQRNNNNST$       ",
"          U+++++++++++          ",
"           ++++++++++           ",
"           ++++++++++           ",
"            ++++++++            ",
"            +++++++V            ",
"             ++++++             ",
"             ++++++             ",
"              .++.              ",
"               ++               ",
"               +.               ",
"               ..               ",
"                                "};
