/* XPM */
static char * C:\Users\itacr\Documents\GitHub\StreamiesC\share\pixmaps\bitcoin16_xpm[] = {
"16 16 32 1",
" 	c None",
".	c #00CCF7",
"+	c #00CBF7",
"@	c #00758F",
"#	c #00829F",
"$	c #212121",
"%	c #51B9DB",
"&	c #42BCE1",
"*	c #3F4141",
"=	c #000000",
"-	c #868787",
";	c #A1B8C3",
">	c #A0B8C3",
",	c #8A8E90",
"'	c #D4D4D4",
")	c #E4E4E4",
"!	c #C7C7C7",
"~	c #FFFFFF",
"{	c #D8D8D8",
"]	c #CCCCCC",
"^	c #DADADA",
"/	c #CBCBCB",
"(	c #929292",
"_	c #D9D9D9",
":	c #D2D2D2",
"<	c #A6A6A6",
"[	c #C2C2C2",
"}	c #818789",
"|	c #A7B9C2",
"1	c #728D9A",
"2	c #6B8895",
"3	c #858A8D",
"                ",
"       .+       ",
"       ++       ",
"      ++++      ",
"     @++++#     ",
"    $%++++&*    ",
"   =-;>>>>>,=   ",
"   =')!~~{]^=   ",
"   ='/(_:<[^=   ",
"   =}||12||3=   ",
"     ++++++     ",
"      ++++      ",
"      ++++      ",
"       ++       ",
"       +.       ",
"                "};
