/* XPM */
static char * C:\Users\itacr\Documents\GitHub\StreamiesUpdate\share\pixmaps\streamies16_xpm[] = {
"16 16 138 2",
"  	c None",
". 	c #2081A8",
"+ 	c #33598E",
"@ 	c #3F2D85",
"# 	c #462792",
"$ 	c #48299A",
"% 	c #462F9B",
"& 	c #3D50A0",
"* 	c #2C7BAF",
"= 	c #286E97",
"- 	c #3F237B",
"; 	c #451685",
"> 	c #47198D",
", 	c #491D96",
"' 	c #4B209E",
") 	c #4D23A6",
"! 	c #4F26AE",
"~ 	c #4E2DB1",
"{ 	c #3A65AE",
"] 	c #276E95",
"^ 	c #3F1874",
"/ 	c #43137D",
"( 	c #47198E",
"_ 	c #425EAB",
": 	c #4072BC",
"< 	c #4D24A7",
"[ 	c #4F26AF",
"} 	c #5129B7",
"| 	c #532CBD",
"1 	c #3D62B1",
"2 	c #1D80A3",
"3 	c #3B206C",
"4 	c #401075",
"5 	c #471A8E",
"6 	c #2BA5D9",
"7 	c #23B4E6",
"8 	c #4C37AB",
"9 	c #532CBF",
"0 	c #532FC1",
"a 	c #3476B5",
"b 	c #2C567F",
"c 	c #3E0E6C",
"d 	c #421580",
"e 	c #356DA6",
"f 	c #07C7F4",
"g 	c #01CBF7",
"h 	c #3486C3",
"i 	c #4A26A5",
"j 	c #5129B6",
"k 	c #552FC6",
"l 	c #474CB6",
"m 	c #362764",
"n 	c #3E0D6C",
"o 	c #42137C",
"p 	c #311A5B",
"q 	c #2FA5C8",
"r 	c #00BFE8",
"s 	c #00BFE9",
"t 	c #21B0D6",
"u 	c #3D437B",
"v 	c #5028B4",
"w 	c #552FC7",
"x 	c #532FC3",
"y 	c #2581B2",
"z 	c #3A1D65",
"A 	c #350D64",
"B 	c #909091",
"C 	c #C2C5C7",
"D 	c #C1C5C7",
"E 	c #CACED0",
"F 	c #BDC2C4",
"G 	c #A1A1A2",
"H 	c #40248E",
"I 	c #532CBE",
"J 	c #5731CC",
"K 	c #3463A8",
"L 	c #3A1C65",
"M 	c #320C60",
"N 	c #ABABAC",
"O 	c #D0D0D0",
"P 	c #C8C8C8",
"Q 	c #CCCCCC",
"R 	c #C9C9C9",
"S 	c #BFBFBF",
"T 	c #3E2487",
"U 	c #3662A8",
"V 	c #372465",
"W 	c #3F1176",
"X 	c #493872",
"Y 	c #539CBC",
"Z 	c #43A6C6",
"` 	c #3DA4C4",
" .	c #52A1C3",
"..	c #524B93",
"+.	c #4B26A9",
"@.	c #542FC5",
"#.	c #2879AC",
"$.	c #2F4975",
"%.	c #348BC3",
"&.	c #02CAF6",
"*.	c #00CBF7",
"=.	c #349AD7",
"-.	c #4F2CAF",
";.	c #4A40B7",
">.	c #11A9D3",
",.	c #217A9E",
"'.	c #3D176B",
").	c #443A96",
"!.	c #1DB8E8",
"~.	c #18BFEE",
"{.	c #494FB2",
"].	c #542EC4",
"^.	c #396DB5",
"/.	c #2C5E88",
"(.	c #401274",
"_.	c #3A80BF",
":.	c #388DCC",
"<.	c #4D27A7",
"[.	c #4355B2",
"}.	c #2E5B89",
"|.	c #41157B",
"1.	c #482B98",
"2.	c #4A30A1",
"3.	c #4154AD",
"4.	c #28709A",
"5.	c #394184",
"6.	c #431987",
"7.	c #491C94",
"8.	c #4A1F9D",
"9.	c #4A21A0",
"0.	c #43399E",
"a.	c #356AAA",
"b.	c #0AAED5",
"c.	c #1D7CA2",
"d.	c #2C5F8F",
"e.	c #2E5D92",
"f.	c #2376A1",
"g.	c #0FA6CF",
"                                ",
"        . + @ # $ % & *         ",
"      = - ; > , ' ) ! ~ {       ",
"    ] ^ / ; ( _ : < [ } | 1     ",
"  2 3 4 / ; 5 6 7 8 [ } 9 0 a   ",
"  b c 4 / d e f g h i j 9 k l   ",
"  m n 4 o p q r s t u v 9 w x y ",
"  z n 4 A B C D E F G H I w J K ",
"  L n 4 M N O P Q R S T I w J U ",
"  V n 4 W X Y Z `  ...+.I w @.#.",
"  $.n 4 / ; %.&.*.=.-.j 9 w ;.>.",
"  ,.'.4 / ; ).!.~.{.[ } 9 ].^.  ",
"    /.(./ ; ( _.:.<.[ } I [.    ",
"      }.|.; ( 1.2.) [ v 3.      ",
"        4.5.6.7.8.9.0.a.        ",
"          b.c.d.e.f.g.          "};
