/* XPM */
static char * C:\Users\itacr\Documents\GitHub\StreamiesUpdate\share\pixmaps\streamies64_xpm[] = {
"48 48 629 2",
"  	c None",
". 	c #00BFE8",
"+ 	c #00BAE2",
"@ 	c #01B2D9",
"# 	c #03ABD0",
"$ 	c #04A6CB",
"% 	c #03AAD0",
"& 	c #01B1D8",
"* 	c #00B9E1",
"= 	c #00BFE9",
"- 	c #00C0EA",
"; 	c #00AFD5",
"> 	c #0993B5",
", 	c #137798",
"' 	c #1C5E80",
") 	c #224C73",
"! 	c #264470",
"~ 	c #294171",
"{ 	c #294172",
"] 	c #284473",
"^ 	c #254C76",
"/ 	c #1E5B81",
"( 	c #167497",
"_ 	c #0C8EB1",
": 	c #01ACD2",
"< 	c #00C0E9",
"[ 	c #02BAE3",
"} 	c #089DC1",
"| 	c #186C8C",
"1 	c #263260",
"2 	c #301160",
"3 	c #391471",
"4 	c #3F177F",
"5 	c #431A89",
"6 	c #461B8F",
"7 	c #471D93",
"8 	c #481D96",
"9 	c #481E97",
"0 	c #471E96",
"a 	c #441E91",
"b 	c #3F1C87",
"c 	c #371977",
"d 	c #2C2E6F",
"e 	c #1F658C",
"f 	c #0D98BC",
"g 	c #04B7DF",
"h 	c #01B5DD",
"i 	c #0D94B7",
"j 	c #1E6082",
"k 	c #2E2865",
"l 	c #3A136F",
"m 	c #41157F",
"n 	c #451888",
"o 	c #47198D",
"p 	c #481A90",
"q 	c #481B93",
"r 	c #491D96",
"s 	c #4A1E99",
"t 	c #4A1E9B",
"u 	c #4B209E",
"v 	c #4C21A1",
"w 	c #4C21A4",
"x 	c #4D23A6",
"y 	c #4A22A1",
"z 	c #442095",
"A 	c #392983",
"B 	c #275A89",
"C 	c #148EB4",
"D 	c #02B1D8",
"E 	c #00C2EC",
"F 	c #02A4C8",
"G 	c #18607F",
"H 	c #2D2B62",
"I 	c #3C1472",
"J 	c #43157F",
"K 	c #451685",
"L 	c #461788",
"M 	c #46188B",
"N 	c #471A8E",
"O 	c #481A91",
"P 	c #4E23A7",
"Q 	c #4E24AA",
"R 	c #4E24AC",
"S 	c #4F25AE",
"T 	c #4E25AD",
"U 	c #4924A3",
"V 	c #392E88",
"W 	c #235783",
"X 	c #079EC2",
"Y 	c #00C1EA",
"Z 	c #01BEE8",
"` 	c #0C91B3",
" .	c #22385D",
"..	c #360E64",
"+.	c #411279",
"@.	c #441480",
"#.	c #441582",
"$.	c #451686",
"%.	c #461789",
"&.	c #5026AF",
"*.	c #5027B2",
"=.	c #5128B4",
"-.	c #4F28B2",
";.	c #45239C",
">.	c #2F3279",
",.	c #1588AD",
"'.	c #02BBE4",
").	c #01B7DF",
"!.	c #1180A0",
"~.	c #2A3261",
"{.	c #3B0F6B",
"].	c #421279",
"^.	c #43137D",
"/.	c #441481",
"(.	c #5229B7",
"_.	c #5229B8",
":.	c #4C27AD",
"<.	c #39328C",
"[.	c #1C769E",
"}.	c #02B0D7",
"|.	c #127290",
"1.	c #2C1F56",
"2.	c #3D0F6D",
"3.	c #411177",
"4.	c #42127A",
"5.	c #522ABA",
"6.	c #532ABC",
"7.	c #4F29B6",
"8.	c #3E2890",
"9.	c #1E668E",
"0.	c #03AFD7",
"a.	c #2B1F55",
"b.	c #3D0E6D",
"c.	c #411075",
"d.	c #411178",
"e.	c #4649A5",
"f.	c #4164B3",
"g.	c #532CBF",
"h.	c #522BBC",
"i.	c #3E2892",
"j.	c #1E759D",
"k.	c #02B9E2",
"l.	c #00C1EB",
"m.	c #0B90B2",
"n.	c #28325D",
"o.	c #3B0D68",
"p.	c #400F72",
"q.	c #482A99",
"r.	c #2CA1D8",
"s.	c #23B1E4",
"t.	c #483FA6",
"u.	c #542CBF",
"v.	c #542DC1",
"w.	c #512BBA",
"x.	c #3C3292",
"y.	c #1884AB",
"z.	c #02A3C7",
"A.	c #213658",
"B.	c #380B62",
"C.	c #3F0E6F",
"D.	c #3F6DB4",
"E.	c #11C2F0",
"F.	c #0AC6F4",
"G.	c #3B81C5",
"H.	c #542DC2",
"I.	c #552DC4",
"J.	c #4F2BB7",
"K.	c #343081",
"L.	c #0A98BD",
"M.	c #01B5DC",
"N.	c #165E7A",
"O.	c #330956",
"P.	c #3E0D6B",
"Q.	c #3F0E70",
"R.	c #463399",
"S.	c #2BA2D7",
"T.	c #00CBF7",
"U.	c #25B0E3",
"V.	c #4945AA",
"W.	c #552FC6",
"X.	c #4B29AE",
"Y.	c #275285",
"Z.	c #04B0D8",
"`.	c #0B93B5",
" +	c #292855",
".+	c #3C0B66",
"++	c #3F0D6C",
"@+	c #3E6AB1",
"#+	c #0FC3F1",
"$+	c #06C8F5",
"%+	c #3C81C6",
"&+	c #562FC7",
"*+	c #552FC5",
"=+	c #402F9A",
"-+	c #1988AF",
";+	c #01C1EB",
">+	c #1B5D7B",
",+	c #370C5C",
"'+	c #3E0B69",
")+	c #471D91",
"!+	c #22AFE1",
"~+	c #15BFEF",
"{+	c #4A39A9",
"]+	c #5630C9",
"^+	c #502DBB",
"/+	c #2E528F",
"(+	c #06B3DB",
"_+	c #079BBE",
":+	c #292452",
"<+	c #3B0B64",
"[+	c #471B8E",
"}+	c #387BBB",
"|+	c #3398D5",
"1+	c #4D29A8",
"2+	c #552FC7",
"3+	c #41299B",
"4+	c #138DB3",
"5+	c #156885",
"6+	c #330854",
"7+	c #3D0B66",
"8+	c #451788",
"9+	c #411682",
"0+	c #3E4A96",
"a+	c #1BB8E7",
"b+	c #15C0EF",
"c+	c #4162B3",
"d+	c #48219E",
"e+	c #4D24AA",
"f+	c #5730CB",
"g+	c #4D2BB5",
"h+	c #27558A",
"i+	c #00BBE4",
"j+	c #00AED3",
"k+	c #212D4F",
"l+	c #39095E",
"m+	c #3D0B67",
"n+	c #41147E",
"o+	c #270A51",
"p+	c #150F36",
"q+	c #118AAD",
"r+	c #03C8F4",
"s+	c #02CAF6",
"t+	c #119AC1",
"u+	c #18234A",
"v+	c #280F5E",
"w+	c #4821A0",
"x+	c #532FC5",
"y+	c #372786",
"z+	c #05A2C7",
"A+	c #0790B1",
"B+	c #2A0644",
"C+	c #3C0A62",
"D+	c #43147F",
"E+	c #290A53",
"F+	c #010003",
"G+	c #275362",
"H+	c #00B6DD",
"I+	c #2B6376",
"J+	c #010101",
"K+	c #291061",
"L+	c #4D25AC",
"M+	c #5731CC",
"N+	c #43269D",
"O+	c #1682A7",
"P+	c #00C3ED",
"Q+	c #107491",
"R+	c #30074E",
"S+	c #3C0A63",
"T+	c #40137A",
"U+	c #150430",
"V+	c #2B2B2B",
"W+	c #7ABAD2",
"X+	c #00CAF6",
"Y+	c #64BFDF",
"Z+	c #646666",
"`+	c #090320",
" @	c #4823A0",
".@	c #5732CE",
"+@	c #4C2BB4",
"@@	c #216490",
"#@	c #00BBE3",
"$@	c #00B8E1",
"%@	c #175975",
"&@	c #350757",
"*@	c #3D0A64",
"=@	c #40127A",
"-@	c #310D60",
";@	c #090119",
">@	c #394043",
",@	c #3FA7C6",
"'@	c #00A3C6",
")@	c #25A4C6",
"!@	c #4C6B76",
"~@	c #000001",
"{@	c #37197E",
"]@	c #4E26AF",
"^@	c #522FC2",
"/@	c #2B4D87",
"(@	c #01B0D7",
"_@	c #1C4864",
":@	c #38075B",
"<@	c #3D1173",
"[@	c #160330",
"}@	c #000000",
"|@	c #5C5C5C",
"1@	c #878787",
"2@	c #898989",
"3@	c #888888",
"4@	c #868686",
"5@	c #848484",
"6@	c #858585",
"7@	c #616161",
"8@	c #200C4F",
"9@	c #4C26AC",
"0@	c #5832CE",
"a@	c #31438A",
"b@	c #07ABD2",
"c@	c #03A8CD",
"d@	c #20405E",
"e@	c #3A075D",
"f@	c #340D63",
"g@	c #070115",
"h@	c #AFAFAF",
"i@	c #FCFCFC",
"j@	c #FDFDFD",
"k@	c #E6E6E6",
"l@	c #CDCDCD",
"m@	c #E4E4E4",
"n@	c #FFFFFF",
"o@	c #EFEFEF",
"p@	c #D6D6D6",
"q@	c #D1D1D1",
"r@	c #FAFAFA",
"s@	c #FEFEFE",
"t@	c #B8B8B8",
"u@	c #020202",
"v@	c #0B0326",
"w@	c #411F94",
"x@	c #5731CD",
"y@	c #363E90",
"z@	c #0CA8CF",
"A@	c #03ACD2",
"B@	c #213C5B",
"C@	c #3A075F",
"D@	c #320D61",
"E@	c #060112",
"F@	c #F3F3F3",
"G@	c #D3D3D3",
"H@	c #DEDEDE",
"I@	c #B9B9B9",
"J@	c #A5A5A5",
"K@	c #EDEDED",
"L@	c #08021F",
"M@	c #3F1E90",
"N@	c #393B94",
"O@	c #0FA3CB",
"P@	c #213B5B",
"Q@	c #F0F0F0",
"R@	c #686868",
"S@	c #737373",
"T@	c #E5E5E5",
"U@	c #DBDBDB",
"V@	c #A6A6A6",
"W@	c #747474",
"X@	c #434343",
"Y@	c #ECECEC",
"Z@	c #0FA2CA",
"`@	c #02A9CF",
" #	c #203F5D",
".#	c #AEAEAE",
"+#	c #F6F6F6",
"@#	c #939393",
"##	c #282828",
"$#	c #ABABAB",
"%#	c #FBFBFB",
"&#	c #989898",
"*#	c #838383",
"=#	c #F8F8F8",
"-#	c #CECECE",
";#	c #464646",
">#	c #797979",
",#	c #F2F2F2",
"'#	c #09021F",
")#	c #5732CD",
"!#	c #373D91",
"~#	c #0CA6CE",
"{#	c #01AED4",
"]#	c #1D4662",
"^#	c #38075C",
"/#	c #360E68",
"(#	c #0B011D",
"_#	c #9A9A9A",
":#	c #E9E9E9",
"<#	c #595959",
"[#	c #D7D7D7",
"}#	c #0E042C",
"|#	c #432098",
"1#	c #5630CA",
"2#	c #32428B",
"3#	c #07ADD5",
"4#	c #00B7DF",
"5#	c #185570",
"6#	c #360758",
"7#	c #41137A",
"8#	c #28094F",
"9#	c #12032A",
"0#	c #160A2B",
"a#	c #4A4B56",
"b#	c #516872",
"c#	c #415C67",
"d#	c #0B4454",
"e#	c #044353",
"f#	c #3B5865",
"g#	c #4E4E5E",
"h#	c #1D133B",
"i#	c #17073C",
"j#	c #2F156E",
"k#	c #4F27B2",
"l#	c #532FC4",
"m#	c #2C4B87",
"n#	c #03AED5",
"o#	c #00BDE6",
"p#	c #126F8B",
"q#	c #310750",
"r#	c #3E1377",
"s#	c #3D1377",
"t#	c #3C287F",
"u#	c #13A6D0",
"v#	c #00B5DD",
"w#	c #17A6D3",
"x#	c #432F9D",
"y#	c #46219C",
"z#	c #4822A1",
"A#	c #4E2CB7",
"B#	c #245E8D",
"C#	c #00C5F0",
"D#	c #0A8BAC",
"E#	c #2B0646",
"F#	c #3682BD",
"G#	c #01CAF7",
"H#	c #3C83CB",
"I#	c #4527A2",
"J#	c #197CA2",
"K#	c #01A8CD",
"L#	c #232249",
"M#	c #434599",
"N#	c #1FB3E3",
"O#	c #24B3E6",
"P#	c #4A48B2",
"Q#	c #5430C7",
"R#	c #39248A",
"S#	c #099BC0",
"T#	c #00BEE8",
"U#	c #185C79",
"V#	c #340856",
"W#	c #461F8D",
"X#	c #3685C0",
"Y#	c #08C7F3",
"Z#	c #0AC7F4",
"`#	c #3C86CB",
" $	c #4E29AB",
".$	c #4E2CB9",
"+$	c #2B4B86",
"@$	c #0993B4",
"#$	c #2C1950",
"$$	c #3C0B64",
"%$	c #443B97",
"&$	c #1DB6E6",
"*$	c #20B6E9",
"=$	c #4B3FAD",
"-$	c #4427A1",
";$	c #1883A9",
">$	c #00C5F1",
",$	c #03B5DC",
"'$	c #1E5271",
")$	c #380B5E",
"!$	c #3A74B6",
"~$	c #04C9F5",
"{$	c #04C9F6",
"]$	c #4074C1",
"^$	c #522EBF",
"/$	c #32478F",
"($	c #07ADD4",
"_$	c #00C2EB",
":$	c #0F89AA",
"<$	c #2C2155",
"[$	c #472192",
"}$	c #27A7DB",
"|$	c #2AA6DD",
"1$	c #4C26A5",
"2$	c #442DA2",
"3$	c #1D7DA7",
"4$	c #02BDE6",
"5$	c #1B506D",
"6$	c #360A5B",
"7$	c #415FAB",
"8$	c #11C1F0",
"9$	c #12C1F0",
"0$	c #4560B4",
"a$	c #4E2BB6",
"b$	c #2C4682",
"c$	c #07A8CF",
"d$	c #0598BA",
"e$	c #25264F",
"f$	c #3A0C65",
"g$	c #472F98",
"h$	c #2F9DD4",
"i$	c #309DD6",
"j$	c #4B32A4",
"k$	c #512CBC",
"l$	c #382988",
"m$	c #118AAF",
"n$	c #00C1EC",
"o$	c #1082A1",
"p$	c #2C2358",
"q$	c #3D0D6B",
"r$	c #4065B0",
"s$	c #13C1EF",
"t$	c #14C0EF",
"u$	c #4264B5",
"v$	c #532CBE",
"w$	c #402A99",
"x$	c #1D749D",
"y$	c #00BAE3",
"z$	c #02B8E1",
"A$	c #16708E",
"B$	c #301557",
"C$	c #482598",
"D$	c #309AD3",
"E$	c #3199D3",
"F$	c #4A279F",
"G$	c #236491",
"H$	c #04B6DF",
"I$	c #02AFD5",
"J$	c #17607E",
"K$	c #301559",
"L$	c #3E0F70",
"M$	c #473CA0",
"N$	c #473BA3",
"O$	c #512AB9",
"P$	c #43269C",
"Q$	c #245684",
"R$	c #06AAD1",
"S$	c #176E8C",
"T$	c #2F225E",
"U$	c #3D1070",
"V$	c #522AB9",
"W$	c #3F2993",
"X$	c #236390",
"Y$	c #05AAD0",
"Z$	c #02B7DF",
"`$	c #127E9E",
" %	c #282455",
".%	c #3A106C",
"+%	c #42137B",
"@%	c #5128B5",
"#%	c #4A26A7",
"$%	c #362780",
"%%	c #1C749B",
"&%	c #04B6DE",
"*%	c #00BEE7",
"=%	c #0992B4",
"-%	c #1F4A6B",
";%	c #321F65",
">%	c #3F1377",
",%	c #431581",
"'%	c #4F26AF",
")%	c #4C25A9",
"!%	c #402793",
"~%	c #2A447B",
"{%	c #03ADD3",
"]%	c #1382A3",
"^%	c #254870",
"/%	c #341666",
"(%	c #431683",
"_%	c #46188A",
":%	c #4D23A7",
"<%	c #4E23A8",
"[%	c #4C23A6",
"}%	c #48229D",
"|%	c #3F1F8C",
"1%	c #2F4483",
"2%	c #1B7CA2",
"3%	c #07A7CD",
"4%	c #01BFE8",
"5%	c #04B0D6",
"6%	c #0F87A8",
"7%	c #204D70",
"8%	c #2D185B",
"9%	c #36136C",
"0%	c #3E167C",
"a%	c #431988",
"b%	c #471A8F",
"c%	c #481C93",
"d%	c #491D97",
"e%	c #4A1E9A",
"f%	c #4A1F9C",
"g%	c #4A1F9D",
"h%	c #481F9B",
"i%	c #441F94",
"j%	c #3D1C86",
"k%	c #341D73",
"l%	c #274678",
"m%	c #1680A3",
"n%	c #06ABD2",
"o%	c #02BCE5",
"p%	c #00C6F1",
"q%	c #00B8E0",
"r%	c #059DC0",
"s%	c #127C9C",
"t%	c #1B5D7F",
"u%	c #234770",
"v%	c #2A3C6E",
"w%	c #2E3670",
"x%	c #313273",
"y%	c #313375",
"z%	c #303675",
"A%	c #2C3C74",
"B%	c #274676",
"C%	c #205A81",
"D%	c #16789B",
"E%	c #0897BC",
"F%	c #00C5EF",
"G%	c #02ADD3",
"H%	c #06ACD2",
"I%	c #0AA4CA",
"J%	c #0DA0C6",
"K%	c #07ABD1",
"L%	c #03ACD1",
"                                                                                                ",
"                                      . + @ # $ $ % & * =                                       ",
"                                - ; > , ' ) ! ~ { ] ^ / ( _ : <                                 ",
"                            [ } | 1 2 3 4 5 6 7 8 9 0 a b c d e f g                             ",
"                        h i j k l m n o p q r s t u v w x x y z A B C D                         ",
"                    E F G H I J K L M N O q r s t u v w P Q R S T U V W X Y                     ",
"                  Z `  ...+.@.#.$.%.M N O q r s t u v w P Q R &.*.=.-.;.>.,.'.                  ",
"                ).!.~.{.].^./.#.$.%.M N O q r s t u v w P Q R &.*.=.(._.:.<.[.}.                ",
"              ).|.1.2.3.4.^./.#.$.%.M N O q r s t u v w P Q R &.*.=.(.5.6.7.8.9.0.              ",
"            Z !.a.b.c.d.4.^./.#.$.%.M N O q r e.f.u v w P Q R &.*.=.(.5.6.g.h.i.j.k.            ",
"          l.m.n.o.p.c.d.4.^./.#.$.%.M N O q q.r.s.t.v w P Q R &.*.=.(.5.6.u.v.w.x.y.<           ",
"          z.A.B.C.p.c.d.4.^./.#.$.%.M N O q D.E.F.G.v w P Q R &.*.=.(.5.6.u.H.I.J.K.L.          ",
"        M.N.O.P.Q.p.c.d.4.^./.#.$.%.M N O R.S.T.T.U.V.w P Q R &.*.=.(.5.6.u.H.I.W.X.Y.Z.        ",
"        `. +.+++Q.p.c.d.4.^./.#.$.%.M N O @+#+T.T.$+%+w P Q R &.*.=.(.5.6.u.H.I.&+*+=+-+;+      ",
"      k.>+,+'+++Q.p.c.d.4.^./.#.$.%.M N )+!+T.T.T.T.~+{+P Q R &.*.=.(.5.6.u.H.I.&+]+^+/+(+      ",
"      _+:+<+'+++Q.p.c.d.4.^./.#.$.%.M [+}+T.T.T.T.T.T.|+1+Q R &.*.=.(.5.6.u.H.I.&+]+2+3+4+      ",
"    - 5+6+7+'+++Q.p.c.d.4.^./.#.$.8+9+0+a+T.T.T.T.T.T.b+c+d+e+&.*.=.(.5.6.u.H.I.&+]+f+g+h+i+    ",
"    j+k+l+m+'+++Q.p.c.d.4.^./.#.n+o+p+q+r+T.T.T.T.T.T.s+t+u+v+w+*.=.(.5.6.u.H.I.&+]+f+x+y+z+    ",
"    A+B+C+m+'+++Q.p.c.d.4.^./.D+E+F+G+H+T.T.T.T.T.T.T.T.- I+J+K+L+=.(.5.6.u.H.I.&+]+f+M+N+O+P+  ",
"  . Q+R+S+m+'+++Q.p.c.d.4.^./.T+U+V+W+X+T.T.T.T.T.T.T.T.T.Y+Z+`+ @=.(.5.6.u.H.I.&+]+f+.@+@@@#@  ",
"  $@%@&@*@m+'+++Q.p.c.d.4.^.=@-@;@>@,@'@'@'@'@'@'@'@'@'@'@)@!@~@{@]@(.5.6.u.H.I.&+]+f+.@^@/@}.  ",
"  (@_@:@*@m+'+++Q.p.c.d.4.<@[@}@|@1@2@3@4@2@2@2@2@2@2@5@6@2@3@7@J+8@9@5.6.u.H.I.&+]+f+0@]+a@b@  ",
"  c@d@e@*@m+'+++Q.p.c.d.4.f@g@}@h@i@j@k@l@m@n@n@n@n@o@p@q@r@s@t@u@v@w@5.6.u.H.I.&+]+f+0@x@y@z@  ",
"  A@B@C@*@m+'+++Q.p.c.d.4.D@E@}@h@i@F@G@H@1@j@n@n@n@I@o@J@K@s@t@u@L@M@5.6.u.H.I.&+]+f+0@.@N@O@  ",
"  A@P@C@*@m+'+++Q.p.c.d.4.D@E@}@h@i@Q@5@R@S@i@T@U@n@V@W@X@Y@s@t@u@L@M@5.6.u.H.I.&+]+f+0@.@N@Z@  ",
"  `@ #e@*@m+'+++Q.p.c.d.4.D@E@}@.#i@+#@###$#%#&#*#=#-#;#>#,#s@t@u@'#M@5.6.u.H.I.&+]+f+0@)#!#~#  ",
"  {#]#^#*@m+'+++Q.p.c.d.4./#(#}@_#=#s@F@:#=#k@<#;#[#i@K@,#s@r@V@J+}#|#5.6.u.H.I.&+]+f+0@1#2#3#  ",
"  4#5#6#*@m+'+++Q.p.c.d.4.7#8#9#0#a#b#b#b#b#c#d#e#f#b#b#b#b#g#h#i#j#k#5.6.u.H.I.&+]+f+.@l#m#n#  ",
"  o#p#q#*@m+'+++Q.p.c.d.4.^.D+r#s#t#u#v#v#v#v#v#v#v#v#v#v#w#x#y#z#*.(.5.6.u.H.I.&+]+f+.@A#B#*   ",
"  C#D#E#C+m+'+++Q.p.c.d.4.^./.#.$.%.F#G#T.T.T.T.T.T.T.T.G#H#R &.*.=.(.5.6.u.H.I.&+]+f+x@I#J#l.  ",
"    K#L#l+m+'+++Q.p.c.d.4.^./.#.$.%.M#N#T.T.T.T.T.T.T.T.O#P#R &.*.=.(.5.6.u.H.I.&+]+f+Q#R#S#    ",
"    T#U#V#7+'+++Q.p.c.d.4.^./.#.$.%.W#X#Y#T.T.T.T.T.T.Z#`# $R &.*.=.(.5.6.u.H.I.&+]+f+.$+$4#    ",
"      @$#$$$'+++Q.p.c.d.4.^./.#.$.%.M %$&$T.T.T.T.T.T.*$=$Q R &.*.=.(.5.6.u.H.I.&+]+]+-$;$>$    ",
"      ,$'$)$'+++Q.p.c.d.4.^./.#.$.%.M N !$~$T.T.T.T.{$]$P Q R &.*.=.(.5.6.u.H.I.&+]+^$/$($      ",
"      _$:$<$m+++Q.p.c.d.4.^./.#.$.%.M N [$}$T.T.T.T.|$1$P Q R &.*.=.(.5.6.u.H.I.&+&+2$3$4$      ",
"        D 5$6$++Q.p.c.d.4.^./.#.$.%.M N O 7$8$T.T.9$0$w P Q R &.*.=.(.5.6.u.H.I.W.a$b$c$        ",
"          d$e$f$C.p.c.d.4.^./.#.$.%.M N O g$h$s+s+i$j$w P Q R &.*.=.(.5.6.u.H.I.k$l$m$n$        ",
"          < o$p$q$p.c.d.4.^./.#.$.%.M N O q r$s$t$u$v w P Q R &.*.=.(.5.6.u.v.v$w$x$y$          ",
"            z$A$B$C.c.d.4.^./.#.$.%.M N O q C$D$E$F$v w P Q R &.*.=.(.5.6.u.g.N+G$H$            ",
"              I$J$K$L$3.4.^./.#.$.%.M N O q r M$N$u v w P Q R &.*.=.(.5.6.O$P$Q$R$              ",
"                D S$T$U$4.^./.#.$.%.M N O q r s t u v w P Q R &.*.=.(.V$-.W$X$Y$                ",
"                  Z$`$ %.%+%/.#.$.%.M N O q r s t u v w P Q R &.*.=.@%#%$%%%&%                  ",
"                    *%=%-%;%>%,%K %.M N O q r s t u v w P Q R '%'%)%!%~%q+y$                    ",
"                        {%]%^%/%s#(%_%N O q r s t u v w :%<%[%}%|%1%2%3%l.                      ",
"                          4%5%6%7%8%9%0%a%b%c%d%e%f%g%h%i%j%k%l%m%n%o%                          ",
"                              p%q%r%s%t%u%v%w%x%y%z%A%B%C%D%E%v#F%                              ",
"                                    l.$@G%H%I%J%J%I%K%L%* -                                     ",
"                                                                                                "};
