/* XPM */
static char * C:\Users\itacr\Documents\GitHub\StreamiesUpdate\share\pixmaps\streamies32_xpm[] = {
"32 32 361 2",
"  	c None",
". 	c #00B3DB",
"+ 	c #0B91B4",
"@ 	c #1582A4",
"# 	c #1E6F94",
"$ 	c #22688F",
"% 	c #236890",
"& 	c #206F95",
"* 	c #1780A4",
"= 	c #0E8DB1",
"- 	c #01B1D8",
"; 	c #0CA8CE",
"> 	c #1B82A6",
", 	c #2C3E71",
"' 	c #38146F",
") 	c #401781",
"! 	c #451B8D",
"~ 	c #481D94",
"{ 	c #491E98",
"] 	c #481F99",
"^ 	c #451F94",
"/ 	c #3F1C88",
"( 	c #333B82",
"_ 	c #227DA8",
": 	c #12A4CC",
"< 	c #01ACD2",
"[ 	c #1A7497",
"} 	c #333E78",
"| 	c #401A7B",
"1 	c #441684",
"2 	c #46188B",
"3 	c #481A90",
"4 	c #481C94",
"5 	c #4A1E98",
"6 	c #4A1F9C",
"7 	c #4C21A0",
"8 	c #4C22A5",
"9 	c #4E24A8",
"0 	c #4D24A9",
"a 	c #4A25A5",
"b 	c #3F409B",
"c 	c #246F9C",
"d 	c #05A8CD",
"e 	c #0BA7CD",
"f 	c #264F76",
"g 	c #3B106E",
"h 	c #43147F",
"i 	c #441583",
"j 	c #461788",
"k 	c #46198C",
"l 	c #4D22A5",
"m 	c #4E24A9",
"n 	c #4F25AD",
"o 	c #5027B1",
"p 	c #5128B4",
"q 	c #4A26A8",
"r 	c #334B90",
"s 	c #13A2CB",
"t 	c #0C93B5",
"u 	c #2C406D",
"v 	c #3E1472",
"w 	c #42127B",
"x 	c #441480",
"y 	c #5128B5",
"z 	c #522AB9",
"A 	c #502AB6",
"B 	c #3D409A",
"C 	c #168AB0",
"D 	c #0AA7CD",
"E 	c #2B406C",
"F 	c #3F0F70",
"G 	c #411177",
"H 	c #435CAD",
"I 	c #3F6FB9",
"J 	c #4C23A1",
"K 	c #532BBD",
"L 	c #532CBE",
"M 	c #3E409D",
"N 	c #15A0C9",
"O 	c #01ABD1",
"P 	c #244E72",
"Q 	c #3C126A",
"R 	c #400F73",
"S 	c #46379A",
"T 	c #28AADD",
"U 	c #23B2E5",
"V 	c #4943A9",
"W 	c #542DC1",
"X 	c #522DBD",
"Y 	c #374996",
"Z 	c #07A3C9",
"` 	c #187392",
" .	c #380A5F",
"..	c #3F0E6F",
"+.	c #3E6BB2",
"@.	c #0FC4F1",
"#.	c #0CC6F3",
"$.	c #3F79C1",
"%.	c #552EC5",
"&.	c #502CB9",
"*.	c #296C9F",
"=.	c #0BA6CD",
"-.	c #2F3C6A",
";.	c #3E0C69",
">.	c #471C90",
",.	c #25ACDF",
"'.	c #01CBF7",
").	c #00CBF7",
"!.	c #1EB9EA",
"~.	c #4B30A8",
"{.	c #5630C8",
"].	c #4640AD",
"^.	c #14A7D0",
"/.	c #177FA1",
"(.	c #381260",
"_.	c #3E0C6A",
":.	c #451E8B",
"<.	c #387EBB",
"[.	c #3692D1",
"}.	c #4C2BA8",
"|.	c #4E25AC",
"1.	c #5630C9",
"2.	c #522EBF",
"3.	c #2973A8",
"4.	c #00B3D9",
"5.	c #26395F",
"6.	c #3C0A64",
"7.	c #441582",
"8.	c #35106B",
"9.	c #25436F",
"0.	c #13B6E1",
"a.	c #12BBE8",
"b.	c #285084",
"c.	c #3A1A84",
"d.	c #4F26AF",
"e.	c #3D3598",
"f.	c #04A9CF",
"g.	c #098FB0",
"h.	c #30074F",
"i.	c #3D0B66",
"j.	c #3C1174",
"k.	c #18102A",
"l.	c #3E8DA6",
"m.	c #00C7F2",
"n.	c #00C9F5",
"o.	c #3696B3",
"p.	c #2F2D3E",
"q.	c #44209A",
"r.	c #5730CB",
"s.	c #4A2AAF",
"t.	c #1591B8",
"u.	c #117F9F",
"v.	c #360859",
"w.	c #42137C",
"x.	c #2F0C5C",
"y.	c #2F3338",
"z.	c #48ACCC",
"A.	c #00AED4",
"B.	c #34ACCE",
"C.	c #485C64",
"D.	c #341777",
"E.	c #5027B2",
"F.	c #5731CC",
"G.	c #522FC3",
"H.	c #2375A3",
"I.	c #186D8B",
"J.	c #3A085E",
"K.	c #401277",
"L.	c #220644",
"M.	c #3D3D3D",
"N.	c #A3A3A3",
"O.	c #ADADAD",
"P.	c #9E9E9E",
"Q.	c #A9A9A9",
"R.	c #B1B1B1",
"S.	c #ACACAC",
"T.	c #AAAAAA",
"U.	c #A5A5A5",
"V.	c #414141",
"W.	c #2C136A",
"X.	c #5029B5",
"Y.	c #5731CB",
"Z.	c #2C69A1",
"`.	c #1C6786",
" +	c #3B0860",
".+	c #3F1174",
"++	c #190435",
"@+	c #5C5C5C",
"#+	c #ECECEC",
"$+	c #EFEFEF",
"%+	c #D9D9D9",
"&+	c #C0C0C0",
"*+	c #FFFFFF",
"=+	c #D8D8D8",
"-+	c #DDDDDD",
";+	c #E3E3E3",
">+	c #616161",
",+	c #200C51",
"'+	c #4E27B1",
")+	c #5732CE",
"!+	c #3164A4",
"~+	c #3E1174",
"{+	c #180434",
"]+	c #6A6A6A",
"^+	c #E0E0E0",
"/+	c #C8C8C8",
"(+	c #666666",
"_+	c #D4D4D4",
":+	c #200C50",
"<+	c #3263A4",
"[+	c #196B89",
"}+	c #3F1175",
"|+	c #1B0439",
"1+	c #535353",
"2+	c #E7E7E7",
"3+	c #F5F5F5",
"4+	c #D3D3D3",
"5+	c #E9E9E9",
"6+	c #9A9A9A",
"7+	c #8C8C8C",
"8+	c #EDEDED",
"9+	c #D5D5D5",
"0+	c #F4F4F4",
"a+	c #EAEAEA",
"b+	c #5A5A5A",
"c+	c #230E56",
"d+	c #4E28B2",
"e+	c #2D69A2",
"f+	c #127C9B",
"g+	c #37085A",
"h+	c #42127A",
"i+	c #350E66",
"j+	c #230947",
"k+	c #403C5C",
"l+	c #477D93",
"m+	c #468196",
"n+	c #437F95",
"o+	c #1C728A",
"p+	c #18718A",
"q+	c #427F95",
"r+	c #453F6E",
"s+	c #2A1362",
"t+	c #401E91",
"u+	c #5129B8",
"v+	c #532FC4",
"w+	c #2473A1",
"x+	c #0997BA",
"y+	c #310750",
"z+	c #431580",
"A+	c #441B86",
"B+	c #299DCF",
"C+	c #00C6F1",
"D+	c #2E9DD7",
"E+	c #4C27A9",
"F+	c #4E26AD",
"G+	c #5730CC",
"H+	c #4C2BB2",
"I+	c #178DB4",
"J+	c #01AED4",
"K+	c #283059",
"L+	c #3E67AB",
"M+	c #10C2F0",
"N+	c #13C2F1",
"O+	c #4569BE",
"P+	c #3E319A",
"Q+	c #07A3C8",
"R+	c #1A7898",
"S+	c #390E60",
"T+	c #453192",
"U+	c #27A8DA",
"V+	c #2CA9E0",
"W+	c #4C37AD",
"X+	c #532EC2",
"Y+	c #2C6BA3",
"Z+	c #00C2ED",
"`+	c #0BA8CE",
" @	c #303567",
".@	c #405BA7",
"+@	c #0EC4F1",
"@@	c #10C4F2",
"#@	c #465CB6",
"$@	c #483CB0",
"%@	c #16A1CB",
"&@	c #1C6B8B",
"*@	c #3A0B62",
"=@	c #481B90",
"-@	c #348FC9",
";@	c #03C9F6",
">@	c #04C9F6",
",@	c #388FCD",
"'@	c #512DBD",
")@	c #2D639C",
"!@	c #04A3C7",
"~@	c #284269",
"{@	c #3D0F6B",
"]@	c #4354A6",
"^@	c #1ABCEB",
"/@	c #1ABCEC",
"(@	c #4656AF",
"_@	c #532CBF",
":@	c #3B4098",
"<@	c #0BA1C8",
"[@	c #0E9EC3",
"}@	c #2F3668",
"|@	c #400F71",
"1@	c #482696",
"2@	c #3393CE",
"3@	c #3493CF",
"4@	c #4B2AA2",
"5@	c #4239A2",
"6@	c #189AC4",
"7@	c #1087A9",
"8@	c #30356A",
"9@	c #3F1273",
"0@	c #48319C",
"a@	c #4931A0",
"b@	c #512AB7",
"c@	c #41389F",
"d@	c #1B80A8",
"e@	c #0F9DC1",
"f@	c #2A406D",
"g@	c #3E1173",
"h@	c #4D27AE",
"i@	c #393F91",
"j@	c #1899C3",
"k@	c #079FC2",
"l@	c #206689",
"m@	c #373276",
"n@	c #41157D",
"o@	c #451686",
"p@	c #4D24AB",
"q@	c #4C25A8",
"r@	c #43379E",
"s@	c #2B6296",
"t@	c #0BA1C7",
"u@	c #0FA3C9",
"v@	c #206D92",
"w@	c #31286A",
"x@	c #3C1578",
"y@	c #431988",
"z@	c #481B91",
"A@	c #491D97",
"B@	c #4A1E9B",
"C@	c #4A1F9E",
"D@	c #48209C",
"E@	c #431E92",
"F@	c #392982",
"G@	c #286797",
"H@	c #149FC8",
"I@	c #00C3ED",
"J@	c #04A4C9",
"K@	c #118CAF",
"L@	c #1C7195",
"M@	c #25668F",
"N@	c #2A5F8E",
"O@	c #2B5F8F",
"P@	c #276692",
"Q@	c #207097",
"R@	c #148AAF",
"S@	c #069FC5",
"T@	c #00C1EB",
"                                                                ",
"                      . + @ # $ % & * = -                       ",
"                  ; > , ' ) ! ~ { ] ^ / ( _ :                   ",
"              < [ } | 1 2 3 4 5 6 7 8 9 0 a b c d               ",
"            e f g h i j k 3 4 5 6 7 l m n o p q r s             ",
"          t u v w x i j k 3 4 5 6 7 l m n o y z A B C           ",
"        D E F G w x i j k 3 ~ H I J l m n o y z K L M N         ",
"      O P Q R G w x i j k 3 S T U V l m n o y z K W X Y Z       ",
"      `  ...R G w x i j k 3 +.@.#.$.l m n o y z K W %.&.*.      ",
"    =.-.;...R G w x i j k >.,.'.).!.~.m n o y z K W %.{.].^.    ",
"    /.(._...R G w x i j :.<.).).).).[.}.|.o y z K W %.1.2.3.    ",
"  4.5.6._...R G w x 7.8.9.0.).).).).a.b.c.d.y z K W %.1.1.e.f.  ",
"  g.h.i._...R G w x j.k.l.m.).).).).n.o.p.q.y z K W %.1.r.s.t.  ",
"  u.v.i._...R G w w.x.y.z.A.A.A.A.A.A.B.C.D.E.z K W %.1.F.G.H.  ",
"  I.J.i._...R G K.L.M.N.O.P.Q.R.R.S.P.T.U.V.W.X.K W %.1.F.Y.Z.  ",
"  `. +i._...R G .+++@+#+$+%+&+*+*+=+-+;+$+>+,+'+K W %.1.F.)+!+  ",
"  `. +i._...R G ~+{+@+#+-+]+O.^+=+/+(+_+$+>+:+'+K W %.1.F.)+<+  ",
"  [+J.i._...R G }+|+1+2+3+4+5+6+7+8+9+0+a+b+c+d+K W %.1.F.F.e+  ",
"  f+g+i._...R G h+i+j+k+l+m+n+o+p+q+m+l+r+s+t+u+K W %.1.F.v+w+  ",
"  x+y+i._...R G w x z+A+B+C+C+C+C+C+C+D+E+F+p z K W %.1.G+H+I+  ",
"  J+K+6._...R G w x i j L+M+).).).).N+O+n o y z K W %.1.1.P+Q+  ",
"    R+S+_...R G w x i j T+U+).).).).V+W+n o y z K W %.1.X+Y+Z+  ",
"    `+ @;...R G w x i j k .@+@).).@@#@m n o y z K W %.{.$@%@    ",
"      &@*@..R G w x i j k =@-@;@>@,@l m n o y z K W %.'@)@      ",
"      !@~@{@R G w x i j k 3 ]@^@/@(@l m n o y z K W _@:@<@      ",
"        [@}@|@G w x i j k 3 1@2@3@4@l m n o y z K _@5@6@        ",
"          7@8@9@w x i j k 3 4 0@a@7 l m n o y z b@c@d@          ",
"            e@f@g@x i j k 3 4 5 6 7 l m n o p h@i@j@            ",
"              k@l@m@n@o@k 3 4 5 6 7 8 m p@q@r@s@t@              ",
"                  u@v@w@x@y@z@A@B@C@D@E@F@G@H@                  ",
"                    I@J@K@L@M@N@O@P@Q@R@S@T@                    ",
"                                                                "};
